<?xml version="1.0" encoding="UTF-8" standalone="no"?>
<!-- Created with Inkscape (http://www.inkscape.org/) -->

<svg
   width="82.204041mm"
   height="87.33728mm"
   viewBox="0 0 82.204041 87.33728"
   version="1.1"
   id="svg15942"
   inkscape:version="1.2.2 (b0a8486541, 2022-12-01)"
   sodipodi:docname="score-lanes-and-rows.svg"
   inkscape:export-filename="score-lanes-and-rows.png"
   inkscape:export-xdpi="256"
   inkscape:export-ydpi="256"
   xmlns:inkscape="http://www.inkscape.org/namespaces/inkscape"
   xmlns:sodipodi="http://sodipodi.sourceforge.net/DTD/sodipodi-0.dtd"
   xmlns="http://www.w3.org/2000/svg"
   xmlns:svg="http://www.w3.org/2000/svg">
  <sodipodi:namedview
     id="namedview15944"
     pagecolor="#ffffff"
     bordercolor="#000000"
     borderopacity="0.25"
     inkscape:showpageshadow="2"
     inkscape:pageopacity="0.0"
     inkscape:pagecheckerboard="0"
     inkscape:deskcolor="#d1d1d1"
     inkscape:document-units="mm"
     showgrid="false"
     inkscape:zoom="1.8761364"
     inkscape:cx="138.31617"
     inkscape:cy="236.39007"
     inkscape:window-width="1499"
     inkscape:window-height="1236"
     inkscape:window-x="1003"
     inkscape:window-y="140"
     inkscape:window-maximized="0"
     inkscape:current-layer="layer1" />
  <defs
     id="defs15939">
    <inkscape:path-effect
       effect="bspline"
       id="path-effect28178"
       is_visible="true"
       lpeversion="1"
       weight="33.333333"
       steps="2"
       helper_size="0"
       apply_no_weight="true"
       apply_with_weight="true"
       only_selected="false" />
    <inkscape:path-effect
       effect="bspline"
       id="path-effect28182"
       is_visible="true"
       lpeversion="1"
       weight="33.333333"
       steps="2"
       helper_size="0"
       apply_no_weight="true"
       apply_with_weight="true"
       only_selected="false" />
    <inkscape:path-effect
       effect="bspline"
       id="path-effect28186"
       is_visible="true"
       lpeversion="1"
       weight="33.333333"
       steps="2"
       helper_size="0"
       apply_no_weight="true"
       apply_with_weight="true"
       only_selected="false" />
    <inkscape:path-effect
       effect="bspline"
       id="path-effect28190"
       is_visible="true"
       lpeversion="1"
       weight="33.333333"
       steps="2"
       helper_size="0"
       apply_no_weight="true"
       apply_with_weight="true"
       only_selected="false" />
    <inkscape:path-effect
       effect="bspline"
       id="path-effect28194"
       is_visible="true"
       lpeversion="1"
       weight="33.333333"
       steps="2"
       helper_size="0"
       apply_no_weight="true"
       apply_with_weight="true"
       only_selected="false" />
    <inkscape:path-effect
       effect="bspline"
       id="path-effect28290"
       is_visible="true"
       lpeversion="1"
       weight="33.333333"
       steps="2"
       helper_size="0"
       apply_no_weight="true"
       apply_with_weight="true"
       only_selected="false" />
    <inkscape:path-effect
       effect="bspline"
       id="path-effect28202"
       is_visible="true"
       lpeversion="1"
       weight="33.333333"
       steps="2"
       helper_size="0"
       apply_no_weight="true"
       apply_with_weight="true"
       only_selected="false" />
    <inkscape:path-effect
       effect="bspline"
       id="path-effect28206"
       is_visible="true"
       lpeversion="1"
       weight="33.333333"
       steps="2"
       helper_size="0"
       apply_no_weight="true"
       apply_with_weight="true"
       only_selected="false" />
    <marker
       style="overflow:visible"
       id="Arrow3"
       refX="0"
       refY="0"
       orient="auto-start-reverse"
       inkscape:stockid="Arrow3"
       markerWidth="4.2071066"
       markerHeight="6.9999995"
       viewBox="0 0 4.2071068 7"
       inkscape:isstock="true"
       inkscape:collect="always"
       preserveAspectRatio="xMidYMid">
      <path
         style="fill:none;stroke:context-stroke;stroke-width:1;stroke-linecap:round"
         d="M 3,-3 0,0 3,3"
         id="arrow3"
         transform="rotate(180,0.125,0)"
         sodipodi:nodetypes="ccc" />
    </marker>
    <inkscape:path-effect
       effect="bspline"
       id="path-effect28246"
       is_visible="true"
       lpeversion="1"
       weight="33.333333"
       steps="2"
       helper_size="0"
       apply_no_weight="true"
       apply_with_weight="true"
       only_selected="false" />
    <inkscape:path-effect
       effect="bspline"
       id="path-effect28250"
       is_visible="true"
       lpeversion="1"
       weight="33.333333"
       steps="2"
       helper_size="0"
       apply_no_weight="true"
       apply_with_weight="true"
       only_selected="false" />
    <inkscape:path-effect
       effect="bspline"
       id="path-effect28254"
       is_visible="true"
       lpeversion="1"
       weight="33.333333"
       steps="2"
       helper_size="0"
       apply_no_weight="true"
       apply_with_weight="true"
       only_selected="false" />
    <inkscape:path-effect
       effect="bspline"
       id="path-effect28262"
       is_visible="true"
       lpeversion="1"
       weight="33.333333"
       steps="2"
       helper_size="0"
       apply_no_weight="true"
       apply_with_weight="true"
       only_selected="false" />
    <inkscape:path-effect
       effect="bspline"
       id="path-effect28266"
       is_visible="true"
       lpeversion="1"
       weight="33.333333"
       steps="2"
       helper_size="0"
       apply_no_weight="true"
       apply_with_weight="true"
       only_selected="false" />
    <inkscape:path-effect
       effect="bspline"
       id="path-effect28270"
       is_visible="true"
       lpeversion="1"
       weight="33.333333"
       steps="2"
       helper_size="0"
       apply_no_weight="true"
       apply_with_weight="true"
       only_selected="false" />
    <inkscape:path-effect
       effect="bspline"
       id="path-effect28312"
       is_visible="true"
       lpeversion="1"
       weight="33.333333"
       steps="2"
       helper_size="0"
       apply_no_weight="true"
       apply_with_weight="true"
       only_selected="false" />
    <inkscape:path-effect
       effect="bspline"
       id="path-effect28334"
       is_visible="true"
       lpeversion="1"
       weight="33.333333"
       steps="2"
       helper_size="0"
       apply_no_weight="true"
       apply_with_weight="true"
       only_selected="false" />
  </defs>
  <g
     inkscape:label="Layer 1"
     inkscape:groupmode="layer"
     id="layer1"
     transform="translate(-51.100194,-72.377326)">
    <path
       style="fill:#cccccc;stroke:#d5d5d5;stroke-width:0.365;stroke-linecap:round;stroke-dasharray:0.73, 0.73;stroke-dashoffset:0;stroke-opacity:1;paint-order:fill markers stroke;stop-color:#000000"
       d="m 99.409904,122.3015 c -10.99582,0 -21.99176,0 -32.98783,0"
       id="path28096"
       sodipodi:nodetypes="cc" />
    <path
       style="fill:#cccccc;stroke:#d5d5d5;stroke-width:0.277776;stroke-linecap:round;stroke-dasharray:none;stroke-dashoffset:0;stroke-opacity:1;paint-order:fill markers stroke;stop-color:#000000"
       d="m 99.453516,87.582258 c 0,23.997972 0,47.995802 0,71.993462"
       id="path28098"
       sodipodi:nodetypes="cc" />
    <path
       style="fill:#cccccc;stroke:#d5d5d5;stroke-width:0.365;stroke-linecap:round;stroke-dasharray:0.73, 0.73;stroke-dashoffset:0;stroke-opacity:1;paint-order:fill markers stroke;stop-color:#000000"
       d="m 99.409904,112.77649 c -10.99582,0 -21.99176,0 -32.98783,0"
       id="path28100"
       sodipodi:nodetypes="cc" />
    <path
       style="fill:#cccccc;stroke:#d5d5d5;stroke-width:0.277776;stroke-linecap:round;stroke-dasharray:none;stroke-dashoffset:0;stroke-opacity:1;paint-order:fill markers stroke;stop-color:#000000"
       d="m 66.378462,87.582258 c 0,23.997972 0,47.995802 0,71.993462"
       id="path28102"
       sodipodi:nodetypes="cc" />
    <path
       style="fill:#cccccc;stroke:#d5d5d5;stroke-width:0.277776;stroke-linecap:round;stroke-dasharray:none;stroke-dashoffset:0;stroke-opacity:1;paint-order:fill markers stroke;stop-color:#000000"
       d="m 82.915984,87.582258 c 0,23.997972 0,47.995802 0,71.993462"
       id="path28106"
       sodipodi:nodetypes="cc" />
    <path
       style="fill:#4d4d4d;stroke:#646464;stroke-width:0.365;stroke-linecap:round;stroke-dasharray:none;stroke-dashoffset:0;stroke-opacity:1;paint-order:fill markers stroke;stop-color:#000000"
       d="m 114.54927,103.78064 c -21.088856,0 -42.177716,0 -63.266576,0"
       id="path28286"
       sodipodi:nodetypes="cc" />
    <path
       style="fill:#cccccc;stroke:#d5d5d5;stroke-width:0.365;stroke-linecap:round;stroke-dasharray:0.73, 0.73;stroke-dashoffset:0;stroke-opacity:1;paint-order:fill markers stroke;stop-color:#000000"
       d="m 99.409904,131.29733 c -10.99582,0 -21.99176,0 -32.98783,0"
       id="path28114"
       sodipodi:nodetypes="cc" />
    <path
       style="fill:#4d4d4d;stroke:#646464;stroke-width:0.365;stroke-linecap:round;stroke-dasharray:none;stroke-dashoffset:0;stroke-opacity:1;paint-order:fill markers stroke;stop-color:#000000"
       d="m 114.54927,140.29316 c -21.088856,0 -42.177716,0 -63.266576,0"
       id="path28116"
       sodipodi:nodetypes="cc" />
    <path
       style="font-variation-settings:normal;vector-effect:none;fill:none;fill-opacity:1;stroke:#474747;stroke-width:0.365;stroke-linecap:round;stroke-linejoin:miter;stroke-miterlimit:4;stroke-dasharray:none;stroke-dashoffset:0;stroke-opacity:1;-inkscape-stroke:none;marker-start:url(#Arrow3);paint-order:fill markers stroke;stop-color:#000000"
       d="m 99.409914,85.03532 c 0,-2.66498 0,-5.3297 0,-7.99416"
       id="path28136"
       sodipodi:nodetypes="cc" />
    <g
       aria-label="Lane 2"
       id="text28140"
       style="font-size:4.37157px;line-height:1.25;font-family:'URW Gothic';-inkscape-font-specification:'URW Gothic, Normal';vector-effect:none;fill:#474747;stroke:#474747;stroke-width:0.113076;stroke-linecap:round;marker-start:url(#Arrow3);paint-order:fill markers stroke;stop-color:#000000">
      <path
         d="m 93.574033,75.41053 v -3.033204 h 0.392758 v 2.749308 h 0.851688 l 0.525101,-0.0043 v 0.288165 z"
         style="font-weight:500;font-family:'CMU Sans Serif';-inkscape-font-specification:'CMU Sans Serif, Medium';stroke:none"
         id="path32333" />
      <path
         d="m 95.72353,74.917448 q 0,-0.162227 0.12167,-0.281762 0.123804,-0.121669 0.322318,-0.179302 0.198514,-0.05977 0.388489,-0.08752 0.189976,-0.02988 0.382086,-0.02988 v -0.147284 q -0.0085,-0.279627 -0.113132,-0.403431 -0.108862,-0.130208 -0.275357,-0.130208 -0.33726,0 -0.655309,0.221994 L 95.86868,73.58762 q 0.328722,-0.192111 0.685193,-0.192111 0.300972,0 0.503755,0.198514 0.204917,0.198514 0.221994,0.48241 v 1.334097 h -0.330857 v -0.153688 q -0.01708,0.01708 -0.08111,0.05763 -0.06404,0.03842 -0.247608,0.09179 -0.183572,0.05336 -0.397027,0.05336 -0.249743,0 -0.375682,-0.177168 -0.123805,-0.177168 -0.123805,-0.365009 z m 0.320184,-0.0043 q 0,0.1174 0.115266,0.196379 0.115266,0.07898 0.290299,0.07898 0.187841,0 0.33726,-0.07898 0.151554,-0.07898 0.151554,-0.26682 v -0.275357 q -0.134477,0 -0.275358,0.01708 -0.138746,0.01708 -0.288165,0.05336 -0.147284,0.03415 -0.23907,0.106728 -0.09179,0.07258 -0.09179,0.16863 z"
         style="font-weight:500;font-family:'CMU Sans Serif';-inkscape-font-specification:'CMU Sans Serif, Medium';stroke:none"
         id="path32335" />
      <path
         d="m 97.979756,75.41053 v -1.96806 h 0.318049 v 0.307376 q 0.254012,-0.328722 0.638232,-0.328722 0.162226,0 0.277492,0.04909 0.117401,0.04696 0.177168,0.117401 0.0619,0.07044 0.09392,0.177168 0.03415,0.106727 0.04269,0.189975 0.0085,0.08325 0.0085,0.196379 v 1.259388 h -0.341529 v -1.227369 q 0,-0.07471 -0.0021,-0.117401 -0.0021,-0.04483 -0.02562,-0.125939 -0.02348,-0.08111 -0.06617,-0.128073 -0.04056,-0.04909 -0.125939,-0.08538 -0.08538,-0.03842 -0.209187,-0.03842 -0.232666,0 -0.339394,0.196379 -0.104593,0.196379 -0.104593,0.476006 v 1.050201 z"
         style="font-weight:500;font-family:'CMU Sans Serif';-inkscape-font-specification:'CMU Sans Serif, Medium';stroke:none"
         id="path32337" />
      <path
         d="m 100.03747,74.422231 q 0,-0.433315 0.26255,-0.730018 0.26468,-0.296704 0.61902,-0.296704 0.13021,0 0.24761,0.04269 0.11953,0.04056 0.23907,0.136611 0.12167,0.09606 0.20065,0.288165 0.079,0.19211 0.0918,0.45893 v 0.125938 h -1.35544 q 0.0128,0.328722 0.20065,0.535774 0.18784,0.204917 0.44612,0.204917 0.33299,0 0.66385,-0.241205 l 0.0277,0.288166 q -0.333,0.221993 -0.6916,0.224128 -0.41624,0 -0.68519,-0.307376 -0.26682,-0.309511 -0.26682,-0.730018 z m 0.32658,-0.213456 h 1.08436 q -0.0256,-0.170764 -0.0939,-0.288165 -0.0683,-0.119535 -0.15369,-0.16863 -0.0854,-0.05123 -0.15369,-0.06831 -0.0662,-0.01708 -0.12807,-0.01708 -0.22199,0 -0.36714,0.170765 -0.14515,0.170764 -0.18785,0.371412 z"
         style="font-weight:500;font-family:'CMU Sans Serif';-inkscape-font-specification:'CMU Sans Serif, Medium';stroke:none"
         id="path32339" />
      <path
         d="m 103.46129,73.162843 q 0.21346,-0.717211 0.84742,-0.717211 0.42051,0 0.67879,0.277492 0.25828,0.275358 0.25828,0.659578 0,0.153688 -0.0427,0.279627 -0.0405,0.125939 -0.16222,0.268954 -0.11954,0.140881 -0.21133,0.228397 -0.0918,0.08752 -0.31377,0.283896 -0.11741,0.104594 -0.70441,0.661713 l 1.43442,-0.0043 v 0.30951 h -1.75033 v -0.283896 l 0.56992,-0.563523 q 0.0342,-0.03415 0.14942,-0.138746 0.1174,-0.106727 0.15583,-0.143015 0.0384,-0.03842 0.13234,-0.132342 0.0939,-0.09392 0.12807,-0.143016 0.0363,-0.05123 0.10033,-0.136611 0.064,-0.08538 0.0854,-0.149419 0.0213,-0.06617 0.0427,-0.151553 0.0235,-0.08538 0.0235,-0.1729 0,-0.279626 -0.17717,-0.471736 -0.17717,-0.19211 -0.45253,-0.19211 -0.14941,0 -0.26681,0.06831 -0.11527,0.06617 -0.17504,0.164361 -0.0576,0.09819 -0.096,0.196379 -0.0363,0.09819 -0.0491,0.16863 l -0.0171,0.07471 z"
         style="font-weight:500;font-family:'CMU Sans Serif';-inkscape-font-specification:'CMU Sans Serif, Medium';stroke:none"
         id="path32341" />
    </g>
    <path
       style="font-variation-settings:normal;vector-effect:none;fill:none;fill-opacity:1;stroke:#474747;stroke-width:0.365;stroke-linecap:round;stroke-linejoin:miter;stroke-miterlimit:4;stroke-dasharray:none;stroke-dashoffset:0;stroke-opacity:1;-inkscape-stroke:none;marker-start:url(#Arrow3);paint-order:fill markers stroke;stop-color:#000000"
       d="m 83.005744,85.03532 c 0,-2.66498 0,-5.3297 0,-7.99416"
       id="path28142"
       sodipodi:nodetypes="cc" />
    <g
       aria-label="Lane 1"
       id="text28146"
       style="font-size:4.37157px;line-height:1.25;font-family:'URW Gothic';-inkscape-font-specification:'URW Gothic, Normal';vector-effect:none;fill:#474747;stroke:#474747;stroke-width:0.113076;stroke-linecap:round;marker-start:url(#Arrow3);paint-order:fill markers stroke;stop-color:#000000">
      <path
         d="m 77.169858,75.41053 v -3.033204 h 0.392758 v 2.749308 h 0.851688 l 0.525101,-0.0043 v 0.288165 z"
         style="font-weight:500;font-family:'CMU Sans Serif';-inkscape-font-specification:'CMU Sans Serif, Medium';stroke:none"
         id="path32344" />
      <path
         d="m 79.319356,74.917448 q 0,-0.162227 0.121669,-0.281762 0.123805,-0.121669 0.322318,-0.179302 0.198514,-0.05977 0.388489,-0.08752 0.189976,-0.02988 0.382086,-0.02988 v -0.147284 q -0.0085,-0.279627 -0.113132,-0.403431 -0.108862,-0.130208 -0.275357,-0.130208 -0.33726,0 -0.655309,0.221994 l -0.02562,-0.292434 q 0.328722,-0.192111 0.685193,-0.192111 0.300972,0 0.503755,0.198514 0.204917,0.198514 0.221994,0.48241 v 1.334097 h -0.330856 v -0.153688 q -0.01708,0.01708 -0.08111,0.05763 -0.06404,0.03842 -0.247609,0.09179 -0.183572,0.05336 -0.397027,0.05336 -0.249743,0 -0.375682,-0.177168 -0.123804,-0.177168 -0.123804,-0.365009 z m 0.320183,-0.0043 q 0,0.1174 0.115266,0.196379 0.115266,0.07898 0.2903,0.07898 0.187841,0 0.337259,-0.07898 0.151554,-0.07898 0.151554,-0.26682 v -0.275357 q -0.134477,0 -0.275358,0.01708 -0.138746,0.01708 -0.288165,0.05336 -0.147284,0.03415 -0.23907,0.106728 -0.09179,0.07258 -0.09179,0.16863 z"
         style="font-weight:500;font-family:'CMU Sans Serif';-inkscape-font-specification:'CMU Sans Serif, Medium';stroke:none"
         id="path32346" />
      <path
         d="m 81.575581,75.41053 v -1.96806 h 0.318049 v 0.307376 q 0.254012,-0.328722 0.638232,-0.328722 0.162226,0 0.277492,0.04909 0.117401,0.04696 0.177168,0.117401 0.0619,0.07044 0.09392,0.177168 0.03415,0.106727 0.04269,0.189975 0.0085,0.08325 0.0085,0.196379 v 1.259388 h -0.341529 v -1.227369 q 0,-0.07471 -0.0021,-0.117401 -0.0021,-0.04483 -0.02562,-0.125939 -0.02348,-0.08111 -0.06617,-0.128073 -0.04056,-0.04909 -0.125939,-0.08538 -0.08538,-0.03842 -0.209186,-0.03842 -0.232667,0 -0.339395,0.196379 -0.104593,0.196379 -0.104593,0.476006 v 1.050201 z"
         style="font-weight:500;font-family:'CMU Sans Serif';-inkscape-font-specification:'CMU Sans Serif, Medium';stroke:none"
         id="path32348" />
      <path
         d="m 83.633293,74.422231 q 0,-0.433315 0.26255,-0.730018 0.264685,-0.296704 0.619021,-0.296704 0.130208,0 0.247609,0.04269 0.119535,0.04056 0.23907,0.136611 0.12167,0.09606 0.200648,0.288165 0.07898,0.19211 0.09179,0.45893 v 0.125938 h -1.355443 q 0.01281,0.328722 0.200648,0.535774 0.187841,0.204917 0.446123,0.204917 0.33299,0 0.663846,-0.241205 l 0.02775,0.288166 q -0.332991,0.221993 -0.691596,0.224128 -0.416239,0 -0.685193,-0.307376 -0.266819,-0.309511 -0.266819,-0.730018 z m 0.326587,-0.213456 h 1.084354 q -0.02562,-0.170764 -0.09392,-0.288165 -0.06831,-0.119535 -0.153688,-0.16863 -0.08538,-0.05123 -0.153688,-0.06831 -0.06617,-0.01708 -0.128074,-0.01708 -0.221994,0 -0.367143,0.170765 -0.14515,0.170764 -0.187841,0.371412 z"
         style="font-weight:500;font-family:'CMU Sans Serif';-inkscape-font-specification:'CMU Sans Serif, Medium';stroke:none"
         id="path32350" />
      <path
         d="m 87.270575,72.987809 v -0.251877 q 0.525101,0 0.834612,-0.2903 h 0.08325 v 2.706617 h 0.546447 v 0.258281 h -1.440825 v -0.258281 h 0.546446 v -2.264764 q -0.260416,0.100324 -0.569927,0.100324 z"
         style="font-weight:500;font-family:'CMU Sans Serif';-inkscape-font-specification:'CMU Sans Serif, Medium';stroke:none"
         id="path32352" />
    </g>
    <path
       style="font-variation-settings:normal;vector-effect:none;fill:none;fill-opacity:1;stroke:#474747;stroke-width:0.365;stroke-linecap:round;stroke-linejoin:miter;stroke-miterlimit:4;stroke-dasharray:none;stroke-dashoffset:0;stroke-opacity:1;-inkscape-stroke:none;marker-start:url(#Arrow3);paint-order:fill markers stroke;stop-color:#000000"
       d="m 66.601574,85.03532 c 0,-2.66498 0,-5.3297 0,-7.99416"
       id="path28148"
       sodipodi:nodetypes="cc" />
    <g
       aria-label="Lane 0"
       id="text28152"
       style="font-size:4.37157px;line-height:1.25;font-family:'URW Gothic';-inkscape-font-specification:'URW Gothic, Normal';vector-effect:none;fill:#474747;stroke:#474747;stroke-width:0.113076;stroke-linecap:round;marker-start:url(#Arrow3);paint-order:fill markers stroke;stop-color:#000000">
      <path
         d="m 60.765699,75.41053 v -3.033204 h 0.392758 v 2.749308 h 0.851687 l 0.525101,-0.0043 v 0.288165 z"
         style="font-weight:500;font-family:'CMU Sans Serif';-inkscape-font-specification:'CMU Sans Serif, Medium';stroke:none"
         id="path32355" />
      <path
         d="m 62.915196,74.917448 q 0,-0.162227 0.12167,-0.281762 0.123804,-0.121669 0.322318,-0.179302 0.198513,-0.05977 0.388489,-0.08752 0.189975,-0.02988 0.382085,-0.02988 v -0.147284 q -0.0085,-0.279627 -0.113131,-0.403431 -0.108862,-0.130208 -0.275358,-0.130208 -0.33726,0 -0.655308,0.221994 l -0.02561,-0.292434 q 0.328722,-0.192111 0.685192,-0.192111 0.300973,0 0.503755,0.198514 0.204918,0.198514 0.221994,0.48241 v 1.334097 h -0.330856 v -0.153688 q -0.01708,0.01708 -0.08111,0.05763 -0.06404,0.03842 -0.247608,0.09179 -0.183572,0.05336 -0.397028,0.05336 -0.249743,0 -0.375682,-0.177168 -0.123804,-0.177168 -0.123804,-0.365009 z m 0.320183,-0.0043 q 0,0.1174 0.115266,0.196379 0.115267,0.07898 0.2903,0.07898 0.187841,0 0.33726,-0.07898 0.151553,-0.07898 0.151553,-0.26682 v -0.275357 q -0.134477,0 -0.275357,0.01708 -0.138746,0.01708 -0.288165,0.05336 -0.147285,0.03415 -0.239071,0.106728 -0.09179,0.07258 -0.09179,0.16863 z"
         style="font-weight:500;font-family:'CMU Sans Serif';-inkscape-font-specification:'CMU Sans Serif, Medium';stroke:none"
         id="path32357" />
      <path
         d="m 65.171422,75.41053 v -1.96806 h 0.318048 v 0.307376 q 0.254012,-0.328722 0.638232,-0.328722 0.162227,0 0.277493,0.04909 0.1174,0.04696 0.177168,0.117401 0.0619,0.07044 0.09392,0.177168 0.03415,0.106727 0.04269,0.189975 0.0085,0.08325 0.0085,0.196379 v 1.259388 h -0.341529 v -1.227369 q 0,-0.07471 -0.0021,-0.117401 -0.0021,-0.04483 -0.02561,-0.125939 -0.02348,-0.08111 -0.06617,-0.128073 -0.04056,-0.04909 -0.125939,-0.08538 -0.08538,-0.03842 -0.209186,-0.03842 -0.232667,0 -0.339394,0.196379 -0.104594,0.196379 -0.104594,0.476006 v 1.050201 z"
         style="font-weight:500;font-family:'CMU Sans Serif';-inkscape-font-specification:'CMU Sans Serif, Medium';stroke:none"
         id="path32359" />
      <path
         d="m 67.229133,74.422231 q 0,-0.433315 0.262551,-0.730018 0.264684,-0.296704 0.619021,-0.296704 0.130208,0 0.247608,0.04269 0.119535,0.04056 0.23907,0.136611 0.12167,0.09606 0.200649,0.288165 0.07898,0.19211 0.09179,0.45893 v 0.125938 h -1.355443 q 0.01281,0.328722 0.200648,0.535774 0.187841,0.204917 0.446122,0.204917 0.332991,0 0.663847,-0.241205 l 0.02775,0.288166 q -0.332991,0.221993 -0.691596,0.224128 -0.416238,0 -0.685192,-0.307376 -0.26682,-0.309511 -0.26682,-0.730018 z m 0.326587,-0.213456 h 1.084355 q -0.02562,-0.170764 -0.09392,-0.288165 -0.06831,-0.119535 -0.153688,-0.16863 -0.08538,-0.05123 -0.153688,-0.06831 -0.06617,-0.01708 -0.128073,-0.01708 -0.221994,0 -0.367144,0.170765 -0.14515,0.170764 -0.187841,0.371412 z"
         style="font-weight:500;font-family:'CMU Sans Serif';-inkscape-font-specification:'CMU Sans Serif, Medium';stroke:none"
         id="path32361" />
      <path
         d="m 70.65296,74.055087 v -0.07471 q 0,-0.170765 0.0064,-0.296703 0.0064,-0.125939 0.04056,-0.332991 0.03629,-0.209187 0.09605,-0.354336 0.0619,-0.147285 0.18784,-0.288165 0.128074,-0.143016 0.303107,-0.209187 0.134477,-0.05336 0.275358,-0.05336 0.12167,0 0.234801,0.03415 0.115266,0.03202 0.241205,0.130208 0.128073,0.09819 0.221994,0.251878 0.09392,0.153688 0.153688,0.422642 0.0619,0.268954 0.0619,0.616886 v 0.09179 q 0,0.166495 -0.0064,0.298838 -0.0064,0.130208 -0.04269,0.332991 -0.03415,0.200648 -0.09819,0.347932 -0.0619,0.14515 -0.189976,0.283896 -0.125939,0.136612 -0.300972,0.202783 -0.14515,0.04909 -0.275358,0.04696 -0.12167,0 -0.234801,-0.03202 -0.110997,-0.02988 -0.241205,-0.123804 -0.128073,-0.09392 -0.219859,-0.245474 -0.09179,-0.153688 -0.153688,-0.424777 -0.05977,-0.271089 -0.05977,-0.625425 z m 0.341529,0 q 0,0.292434 0.03842,0.514428 0.04056,0.219859 0.09606,0.345798 0.05763,0.123804 0.138746,0.200648 0.08111,0.07684 0.149419,0.100325 0.07044,0.02348 0.149419,0.02348 0.100324,0 0.187841,-0.04483 0.08752,-0.04696 0.179303,-0.162226 0.09179,-0.115266 0.14515,-0.367144 0.0555,-0.251877 0.0555,-0.614752 v -0.258281 q 0,-0.332991 -0.0555,-0.559254 -0.05336,-0.226263 -0.147285,-0.330856 -0.09392,-0.106728 -0.181437,-0.14515 -0.08752,-0.04056 -0.187841,-0.04056 -0.100324,0 -0.187841,0.04056 -0.08752,0.03842 -0.179303,0.14515 -0.09179,0.104593 -0.147284,0.335125 -0.05336,0.228398 -0.05336,0.554985 z"
         style="font-weight:500;font-family:'CMU Sans Serif';-inkscape-font-specification:'CMU Sans Serif, Medium';stroke:none"
         id="path32363" />
    </g>
    <path
       style="font-variation-settings:normal;vector-effect:none;fill:none;fill-opacity:1;stroke:#474747;stroke-width:0.365;stroke-linecap:round;stroke-linejoin:miter;stroke-miterlimit:4;stroke-dasharray:none;stroke-dashoffset:0;stroke-opacity:1;-inkscape-stroke:none;marker-start:url(#Arrow3);paint-order:fill markers stroke;stop-color:#000000"
       d="m 100.79093,122.30149 c 2.66498,0 5.3297,0 7.99416,0"
       id="path28158"
       sodipodi:nodetypes="cc" />
    <g
       aria-label="Row"
       id="text28162"
       style="font-size:4.37157px;line-height:1.25;font-family:'URW Gothic';-inkscape-font-specification:'URW Gothic, Normal';vector-effect:none;fill:#474747;stroke:#474747;stroke-width:0.113076;stroke-linecap:round;marker-start:url(#Arrow3);paint-order:fill markers stroke;stop-color:#000000">
      <path
         d="m 110.56216,123.42966 v -3.03321 h 0.98616 q 0.31378,0 0.55285,0.0811 0.23907,0.079 0.36715,0.20918 0.1302,0.12808 0.18997,0.26255 0.0619,0.13235 0.0619,0.26042 0,0.25401 -0.19211,0.47174 -0.19211,0.21772 -0.55498,0.32231 l 0.8709,1.42589 h -0.39489 l -0.81754,-1.38106 h -0.68946 v 1.38106 z m 0.37995,-1.65215 h 0.57633 q 0.45893,0 0.65317,-0.1729 0.19425,-0.1729 0.19425,-0.39062 0,-0.0961 -0.0384,-0.18784 -0.0384,-0.0918 -0.12594,-0.18144 -0.0875,-0.0897 -0.26042,-0.14728 -0.1729,-0.0576 -0.40983,-0.0576 h -0.58914 z"
         style="font-weight:500;font-family:'CMU Sans Serif';-inkscape-font-specification:'CMU Sans Serif, Medium';stroke:none"
         id="path32366" />
      <path
         d="m 113.10014,122.4627 q 0,-0.44185 0.28177,-0.74496 0.28389,-0.3031 0.67665,-0.3031 0.41197,0 0.68733,0.31805 0.27536,0.31591 0.27536,0.73428 0,0.43332 -0.2903,0.72362 -0.28817,0.28816 -0.67239,0.28816 -0.38422,0 -0.67238,-0.2903 -0.28604,-0.29243 -0.28604,-0.72575 z m 0.34153,-0.0427 q 0,0.38422 0.18571,0.5806 0.18571,0.19638 0.43118,0.19638 0.24547,0 0.43118,-0.19851 0.18571,-0.19852 0.18571,-0.57847 0,-0.36714 -0.18571,-0.55071 -0.18571,-0.18358 -0.43118,-0.18358 -0.2412,0 -0.42905,0.18358 -0.18784,0.18357 -0.18784,0.55071 z"
         style="font-weight:500;font-family:'CMU Sans Serif';-inkscape-font-specification:'CMU Sans Serif, Medium';stroke:none"
         id="path32368" />
      <path
         d="m 115.09595,121.48508 h 0.32659 q 0.42478,1.3469 0.47174,1.72685 0.0128,-0.27109 0.46533,-1.72685 h 0.30951 l 0.31805,1.06514 q 0.15369,0.55072 0.1665,0.66171 0.0213,-0.21345 0.48667,-1.72685 h 0.31805 l -0.60408,1.94458 h -0.37995 q -0.2967,-0.98403 -0.36714,-1.23378 -0.0683,-0.25187 -0.10032,-0.48881 -0.009,0.22199 -0.4632,1.72259 h -0.3458 z"
         style="font-weight:500;font-family:'CMU Sans Serif';-inkscape-font-specification:'CMU Sans Serif, Medium';stroke:none"
         id="path32370" />
    </g>
    <path
       style="font-variation-settings:normal;vector-effect:none;fill:none;fill-opacity:1;stroke:#474747;stroke-width:0.365;stroke-linecap:round;stroke-linejoin:miter;stroke-miterlimit:4;stroke-dasharray:none;stroke-dashoffset:0;stroke-opacity:1;-inkscape-stroke:none;marker-start:url(#Arrow3);paint-order:fill markers stroke;stop-color:#000000"
       d="m 100.79093,131.29732 c 2.66498,0 5.3297,0 7.99416,0"
       id="path28164"
       sodipodi:nodetypes="cc" />
    <g
       aria-label="Row"
       id="text28168"
       style="font-size:4.37157px;line-height:1.25;font-family:'URW Gothic';-inkscape-font-specification:'URW Gothic, Normal';vector-effect:none;fill:#474747;stroke:#474747;stroke-width:0.113076;stroke-linecap:round;marker-start:url(#Arrow3);paint-order:fill markers stroke;stop-color:#000000">
      <path
         d="m 110.56216,132.42552 v -3.0332 h 0.98616 q 0.31378,0 0.55285,0.0811 0.23907,0.079 0.36715,0.20919 0.1302,0.12807 0.18997,0.26255 0.0619,0.13234 0.0619,0.26041 0,0.25402 -0.19211,0.47174 -0.19211,0.21773 -0.55498,0.32232 l 0.8709,1.42588 h -0.39489 l -0.81754,-1.38106 h -0.68946 v 1.38106 z m 0.37995,-1.65214 h 0.57633 q 0.45893,0 0.65317,-0.1729 0.19425,-0.1729 0.19425,-0.39063 0,-0.096 -0.0384,-0.18784 -0.0384,-0.0918 -0.12594,-0.18144 -0.0875,-0.0897 -0.26042,-0.14728 -0.1729,-0.0576 -0.40983,-0.0576 h -0.58914 z"
         style="font-weight:500;font-family:'CMU Sans Serif';-inkscape-font-specification:'CMU Sans Serif, Medium';stroke:none"
         id="path32373" />
      <path
         d="m 113.10014,131.45857 q 0,-0.44185 0.28177,-0.74496 0.28389,-0.30311 0.67665,-0.30311 0.41197,0 0.68733,0.31805 0.27536,0.31591 0.27536,0.73429 0,0.43331 -0.2903,0.72361 -0.28817,0.28817 -0.67239,0.28817 -0.38422,0 -0.67238,-0.2903 -0.28604,-0.29244 -0.28604,-0.72575 z m 0.34153,-0.0427 q 0,0.38422 0.18571,0.5806 0.18571,0.19638 0.43118,0.19638 0.24547,0 0.43118,-0.19852 0.18571,-0.19851 0.18571,-0.57846 0,-0.36715 -0.18571,-0.55072 -0.18571,-0.18357 -0.43118,-0.18357 -0.2412,0 -0.42905,0.18357 -0.18784,0.18357 -0.18784,0.55072 z"
         style="font-weight:500;font-family:'CMU Sans Serif';-inkscape-font-specification:'CMU Sans Serif, Medium';stroke:none"
         id="path32375" />
      <path
         d="m 115.09595,130.48094 h 0.32659 q 0.42478,1.34691 0.47174,1.72686 0.0128,-0.27109 0.46533,-1.72686 h 0.30951 l 0.31805,1.06514 q 0.15369,0.55072 0.1665,0.66172 0.0213,-0.21346 0.48667,-1.72686 h 0.31805 l -0.60408,1.94458 h -0.37995 q -0.2967,-0.98403 -0.36714,-1.23377 -0.0683,-0.25188 -0.10032,-0.48881 -0.009,0.22199 -0.4632,1.72258 h -0.3458 z"
         style="font-weight:500;font-family:'CMU Sans Serif';-inkscape-font-specification:'CMU Sans Serif, Medium';stroke:none"
         id="path32377" />
    </g>
    <path
       style="font-variation-settings:normal;vector-effect:none;fill:none;fill-opacity:1;stroke:#474747;stroke-width:0.365;stroke-linecap:round;stroke-linejoin:miter;stroke-miterlimit:4;stroke-dasharray:none;stroke-dashoffset:0;stroke-opacity:1;-inkscape-stroke:none;marker-start:url(#Arrow3);paint-order:fill markers stroke;stop-color:#000000"
       d="m 116.13677,140.29315 c 2.66499,0 5.32971,0 7.99416,0"
       id="path28170"
       sodipodi:nodetypes="cc" />
    <g
       aria-label="Row"
       id="text28174"
       style="font-size:4.37157px;line-height:1.25;font-family:'URW Gothic';-inkscape-font-specification:'URW Gothic, Normal';vector-effect:none;fill:#474747;stroke:#474747;stroke-width:0.113076;stroke-linecap:round;marker-start:url(#Arrow3);paint-order:fill markers stroke;stop-color:#000000">
      <path
         d="m 125.908,141.42131 v -3.0332 h 0.98616 q 0.31378,0 0.55285,0.0811 0.23907,0.079 0.36715,0.20919 0.1302,0.12807 0.18997,0.26255 0.0619,0.13234 0.0619,0.26041 0,0.25401 -0.19211,0.47174 -0.19211,0.21772 -0.55498,0.32232 l 0.8709,1.42588 h -0.39489 l -0.81754,-1.38106 h -0.68946 v 1.38106 z m 0.37995,-1.65215 h 0.57633 q 0.45893,0 0.65317,-0.17289 0.19425,-0.1729 0.19425,-0.39063 0,-0.096 -0.0384,-0.18784 -0.0384,-0.0918 -0.12594,-0.18144 -0.0875,-0.0897 -0.26042,-0.14728 -0.1729,-0.0576 -0.40983,-0.0576 h -0.58914 z"
         style="font-weight:500;font-family:'CMU Sans Serif';-inkscape-font-specification:'CMU Sans Serif, Medium';stroke:none"
         id="path32380" />
      <path
         d="m 128.44599,140.45436 q 0,-0.44186 0.28176,-0.74496 0.28389,-0.30311 0.67665,-0.30311 0.41197,0 0.68733,0.31805 0.27536,0.31591 0.27536,0.73429 0,0.43331 -0.2903,0.72361 -0.28817,0.28817 -0.67239,0.28817 -0.38422,0 -0.67238,-0.2903 -0.28603,-0.29244 -0.28603,-0.72575 z m 0.34152,-0.0427 q 0,0.38422 0.18571,0.58059 0.18571,0.19638 0.43118,0.19638 0.24547,0 0.43118,-0.19851 0.18571,-0.19851 0.18571,-0.57846 0,-0.36715 -0.18571,-0.55072 -0.18571,-0.18357 -0.43118,-0.18357 -0.2412,0 -0.42904,0.18357 -0.18785,0.18357 -0.18785,0.55072 z"
         style="font-weight:500;font-family:'CMU Sans Serif';-inkscape-font-specification:'CMU Sans Serif, Medium';stroke:none"
         id="path32382" />
      <path
         d="m 130.44179,139.47673 h 0.32659 q 0.42478,1.3469 0.47174,1.72686 0.0128,-0.27109 0.46533,-1.72686 h 0.30951 l 0.31805,1.06514 q 0.15369,0.55072 0.1665,0.66172 0.0213,-0.21346 0.48668,-1.72686 h 0.31804 l -0.60408,1.94458 h -0.37995 q -0.2967,-0.98403 -0.36714,-1.23377 -0.0683,-0.25188 -0.10032,-0.48882 -0.009,0.222 -0.4632,1.72259 h -0.3458 z"
         style="font-weight:500;font-family:'CMU Sans Serif';-inkscape-font-specification:'CMU Sans Serif, Medium';stroke:none"
         id="path32384" />
    </g>
    <path
       style="font-variation-settings:normal;vector-effect:none;fill:none;fill-opacity:1;stroke:#474747;stroke-width:0.365;stroke-linecap:round;stroke-linejoin:miter;stroke-miterlimit:4;stroke-dasharray:none;stroke-dashoffset:0;stroke-opacity:1;-inkscape-stroke:none;marker-start:url(#Arrow3);paint-order:fill markers stroke;stop-color:#000000"
       d="m 100.79093,112.77649 c 2.66498,0 5.3297,0 7.99416,0"
       id="path28304"
       sodipodi:nodetypes="cc" />
    <g
       aria-label="Row"
       id="text28308"
       style="font-size:4.37157px;line-height:1.25;font-family:'URW Gothic';-inkscape-font-specification:'URW Gothic, Normal';vector-effect:none;fill:#474747;stroke:#474747;stroke-width:0.113076;stroke-linecap:round;marker-start:url(#Arrow3);paint-order:fill markers stroke;stop-color:#000000">
      <path
         d="m 110.56216,113.90464 v -3.0332 h 0.98616 q 0.31378,0 0.55285,0.0811 0.23907,0.079 0.36715,0.20919 0.1302,0.12807 0.18997,0.26255 0.0619,0.13234 0.0619,0.26041 0,0.25401 -0.19211,0.47174 -0.19211,0.21772 -0.55498,0.32232 l 0.8709,1.42588 h -0.39489 l -0.81754,-1.38106 h -0.68946 v 1.38106 z m 0.37995,-1.65215 h 0.57633 q 0.45893,0 0.65317,-0.17289 0.19425,-0.1729 0.19425,-0.39063 0,-0.096 -0.0384,-0.18784 -0.0384,-0.0918 -0.12594,-0.18144 -0.0875,-0.0896 -0.26042,-0.14728 -0.1729,-0.0576 -0.40983,-0.0576 h -0.58914 z"
         style="font-weight:500;font-family:'CMU Sans Serif';-inkscape-font-specification:'CMU Sans Serif, Medium';stroke:none"
         id="path32387" />
      <path
         d="m 113.10014,112.93769 q 0,-0.44186 0.28177,-0.74496 0.28389,-0.30311 0.67665,-0.30311 0.41197,0 0.68733,0.31805 0.27536,0.31591 0.27536,0.73429 0,0.43331 -0.2903,0.72361 -0.28817,0.28816 -0.67239,0.28816 -0.38422,0 -0.67238,-0.29029 -0.28604,-0.29244 -0.28604,-0.72575 z m 0.34153,-0.0427 q 0,0.38422 0.18571,0.58059 0.18571,0.19638 0.43118,0.19638 0.24547,0 0.43118,-0.19851 0.18571,-0.19851 0.18571,-0.57846 0,-0.36715 -0.18571,-0.55072 -0.18571,-0.18357 -0.43118,-0.18357 -0.2412,0 -0.42905,0.18357 -0.18784,0.18357 -0.18784,0.55072 z"
         style="font-weight:500;font-family:'CMU Sans Serif';-inkscape-font-specification:'CMU Sans Serif, Medium';stroke:none"
         id="path32389" />
      <path
         d="m 115.09595,111.96006 h 0.32659 q 0.42478,1.3469 0.47174,1.72686 0.0128,-0.27109 0.46533,-1.72686 h 0.30951 l 0.31805,1.06514 q 0.15369,0.55072 0.1665,0.66172 0.0213,-0.21346 0.48667,-1.72686 h 0.31805 l -0.60408,1.94458 h -0.37995 q -0.2967,-0.98403 -0.36714,-1.23377 -0.0683,-0.25188 -0.10032,-0.48882 -0.009,0.222 -0.4632,1.72259 h -0.3458 z"
         style="font-weight:500;font-family:'CMU Sans Serif';-inkscape-font-specification:'CMU Sans Serif, Medium';stroke:none"
         id="path32391" />
    </g>
    <path
       style="font-variation-settings:normal;vector-effect:none;fill:none;fill-opacity:1;stroke:#474747;stroke-width:0.365;stroke-linecap:round;stroke-linejoin:miter;stroke-miterlimit:4;stroke-dasharray:none;stroke-dashoffset:0;stroke-opacity:1;-inkscape-stroke:none;marker-start:url(#Arrow3);paint-order:fill markers stroke;stop-color:#000000"
       d="m 116.13677,103.78063 c 2.66499,0 5.32971,0 7.99416,0"
       id="path28326"
       sodipodi:nodetypes="cc" />
    <g
       aria-label="Row"
       id="text28330"
       style="font-size:4.37157px;line-height:1.25;font-family:'URW Gothic';-inkscape-font-specification:'URW Gothic, Normal';vector-effect:none;fill:#474747;stroke:#474747;stroke-width:0.113076;stroke-linecap:round;marker-start:url(#Arrow3);paint-order:fill markers stroke;stop-color:#000000">
      <path
         d="m 125.908,104.90878 v -3.0332 h 0.98616 q 0.31378,0 0.55285,0.0811 0.23907,0.079 0.36715,0.20919 0.1302,0.12807 0.18997,0.26255 0.0619,0.13234 0.0619,0.26042 0,0.25401 -0.19211,0.47173 -0.19211,0.21773 -0.55498,0.32232 l 0.8709,1.42588 h -0.39489 l -0.81754,-1.38105 h -0.68946 v 1.38105 z m 0.37995,-1.65214 h 0.57633 q 0.45893,0 0.65317,-0.1729 0.19425,-0.1729 0.19425,-0.39063 0,-0.0961 -0.0384,-0.18784 -0.0384,-0.0918 -0.12594,-0.18143 -0.0875,-0.0897 -0.26042,-0.14729 -0.1729,-0.0576 -0.40983,-0.0576 h -0.58914 z"
         style="font-weight:500;font-family:'CMU Sans Serif';-inkscape-font-specification:'CMU Sans Serif, Medium';stroke:none"
         id="path32394" />
      <path
         d="m 128.44599,103.94183 q 0,-0.44185 0.28176,-0.74496 0.28389,-0.30311 0.67665,-0.30311 0.41197,0 0.68733,0.31805 0.27536,0.31592 0.27536,0.73429 0,0.43331 -0.2903,0.72361 -0.28817,0.28817 -0.67239,0.28817 -0.38422,0 -0.67238,-0.2903 -0.28603,-0.29244 -0.28603,-0.72575 z m 0.34152,-0.0427 q 0,0.38422 0.18571,0.5806 0.18571,0.19638 0.43118,0.19638 0.24547,0 0.43118,-0.19852 0.18571,-0.19851 0.18571,-0.57846 0,-0.36715 -0.18571,-0.55072 -0.18571,-0.18357 -0.43118,-0.18357 -0.2412,0 -0.42904,0.18357 -0.18785,0.18357 -0.18785,0.55072 z"
         style="font-weight:500;font-family:'CMU Sans Serif';-inkscape-font-specification:'CMU Sans Serif, Medium';stroke:none"
         id="path32396" />
      <path
         d="m 130.44179,102.9642 h 0.32659 q 0.42478,1.34691 0.47174,1.72686 0.0128,-0.27109 0.46533,-1.72686 h 0.30951 l 0.31805,1.06515 q 0.15369,0.55071 0.1665,0.66171 0.0213,-0.21346 0.48668,-1.72686 h 0.31804 l -0.60408,1.94458 h -0.37995 q -0.2967,-0.98403 -0.36714,-1.23377 -0.0683,-0.25188 -0.10032,-0.48881 -0.009,0.22199 -0.4632,1.72258 h -0.3458 z"
         style="font-weight:500;font-family:'CMU Sans Serif';-inkscape-font-specification:'CMU Sans Serif, Medium';stroke:none"
         id="path32398" />
    </g>
  </g>
</svg>
